<svg width="21" height="23" viewBox="0 0 21 23" fill="none" xmlns="http://www.w3.org/2000/svg">
<path d="M9.29875 4.6701L6.53051 1.5281C6.27354 1.23644 5.81723 1.21851 5.51131 1.48804L3.32348 3.41563C0.553912 5.85574 4.17217 11.0792 6.95569 14.2386C9.72253 17.379 14.4887 21.6719 17.2582 19.2318L19.4461 17.3042C19.752 17.0346 19.7917 16.5797 19.5347 16.2881L16.7665 13.1461C16.5095 12.8544 16.0532 12.8365 15.7473 13.106L13.5595 15.0336C13.5595 15.0336 12.5681 14.969 9.73696 11.8117C6.90579 8.65445 7.02229 7.61378 7.02229 7.61378L9.2101 5.68621C9.51603 5.41668 9.55571 4.96175 9.29875 4.6701Z" stroke="#4D545B" stroke-width="1.5" stroke-linecap="round" stroke-linejoin="round"/>
</svg>
