<svg width="21" height="23" fill="none" xmlns="http://www.w3.org/2000/svg"><path d="M9.299 4.67L6.53 1.528c-.257-.292-.714-.31-1.02-.04L3.323 3.416c-2.77 2.44.85 7.663 3.633 10.823 2.767 3.14 7.533 7.433 10.302 4.993l2.188-1.928c.306-.27.346-.724.089-1.016l-2.768-3.142c-.258-.292-.714-.31-1.02-.04l-2.188 1.928s-.99-.065-3.822-3.222C6.906 8.654 7.022 7.614 7.022 7.614L9.21 5.686c.306-.27.346-.724.089-1.016z" stroke="#4D545B" stroke-width="1.5" stroke-linecap="round" stroke-linejoin="round"/></svg>